<svg id="svg" version="1.1" xmlns="http://www.w3.org/2000/svg" xmlns:xlink="http://www.w3.org/1999/xlink" width="400" height="400" viewBox="0, 0, 400,400">
  <defs>
    <!-- Horizontal change (constant along y): left→right -->
    <linearGradient id="brandGrad" gradientUnits="userSpaceOnUse" x1="0" y1="0" x2="400" y2="0">
      <stop offset="0%" stop-color="#7c3aed"></stop>
      <stop offset="55%" stop-color="#2563eb"></stop>
      <stop offset="100%" stop-color="#2563eb"></stop>
    </linearGradient>
  </defs>

  <g id="svgg">
    <path id="path0" d="M80.078 5.730 C 44.393 7.677,15.855 30.304,7.234 63.486 C 4.936 72.329,5.059 62.428,5.171 229.688 L 5.273 383.008 6.173 385.235 C 7.937 389.601,11.785 392.740,16.831 393.929 C 20.035 394.684,75.118 394.830,78.594 394.092 C 82.727 393.215,86.595 390.550,88.532 387.245 C 90.756 383.450,90.615 393.508,90.624 238.477 L 90.633 95.508 91.577 93.480 C 92.733 90.996,94.969 89.270,97.782 88.688 C 99.195 88.396,128.608 88.301,195.313 88.373 L 290.820 88.477 294.024 89.562 C 303.976 92.933,307.292 99.526,304.480 110.352 C 303.154 115.457,301.708 117.547,285.224 138.186 C 244.770 188.836,215.431 225.389,215.244 225.370 C 215.131 225.358,210.070 219.153,203.998 211.581 C 187.804 191.388,184.453 188.378,174.930 185.474 C 171.028 184.284,116.367 183.836,113.399 184.970 C 109.406 186.495,107.716 192.241,110.081 196.249 C 110.728 197.346,136.354 229.707,170.742 272.852 C 177.078 280.801,185.583 291.523,189.642 296.680 C 207.058 318.801,213.533 324.539,223.595 326.766 C 234.798 329.245,245.388 324.560,256.288 312.305 C 259.281 308.939,367.964 173.140,372.950 166.536 C 384.803 150.836,391.037 136.669,393.546 119.732 C 402.345 60.347,362.450 10.532,302.363 5.876 C 297.693 5.514,86.579 5.376,80.078 5.730 M302.930 14.449 C 376.462 19.493,412.093 102.818,366.072 162.109 C 344.826 189.482,249.513 307.824,246.199 310.944 C 239.339 317.405,235.880 318.937,228.764 318.665 C 218.064 318.256,215.552 316.053,191.872 286.328 C 176.678 267.255,157.805 243.580,135.356 215.430 C 121.361 197.879,117.578 193.060,117.578 192.779 C 117.578 192.229,169.771 192.600,172.175 193.167 C 179.147 194.811,182.393 197.602,193.753 211.719 C 214.486 237.483,213.470 236.328,215.419 236.328 C 217.312 236.328,217.465 236.144,261.871 180.664 C 281.991 155.526,289.757 145.782,301.961 130.365 C 318.906 108.960,317.654 90.000,298.799 82.466 C 292.406 79.912,299.164 80.058,192.969 80.171 L 96.680 80.273 94.116 81.145 C 89.203 82.817,85.575 86.324,83.492 91.415 L 82.617 93.555 82.606 236.719 C 82.593 397.077,82.878 381.693,79.873 384.331 C 77.661 386.273,76.749 386.328,46.843 386.328 C 14.658 386.328,16.226 386.524,13.923 382.227 L 13.086 380.664 12.974 233.203 C 12.856 78.154,12.860 77.740,14.634 68.978 C 20.691 39.066,45.272 17.511,76.758 14.504 C 81.712 14.031,296.073 13.979,302.930 14.449 M377.140 208.349 C 375.267 209.179,374.180 210.490,346.020 245.898 C 309.012 292.432,306.177 295.987,271.112 339.820 C 254.022 361.183,239.646 379.465,239.165 380.445 C 236.655 385.564,240.006 392.221,245.924 393.871 C 248.857 394.688,364.578 394.904,368.438 394.100 C 375.460 392.635,381.326 386.925,382.764 380.157 C 383.429 377.025,383.376 211.881,382.709 210.585 C 381.645 208.513,379.086 207.486,377.140 208.349 M374.615 379.252 C 373.697 382.604,370.965 385.175,367.539 385.909 C 365.043 386.445,249.334 386.501,247.930 385.967 C 246.841 385.553,246.361 384.597,246.703 383.520 C 246.833 383.111,272.984 350.212,304.817 310.412 C 336.650 270.612,365.420 234.614,368.750 230.416 L 374.805 222.783 374.903 300.311 C 374.967 350.588,374.866 378.336,374.615 379.252 " stroke="none" fill="#121313" fill-rule="evenodd"></path>

    <!-- Fill with left→right (x-only) gradient -->
    <path id="path1" d="M79.985 5.745 C 80.471 5.838,81.174 5.835,81.548 5.737 C 81.921 5.639,81.523 5.563,80.664 5.567 C 79.805 5.572,79.499 5.652,79.985 5.745 M76.758 14.504 C 45.272 17.511,20.691 39.066,14.634 68.978 C 12.860 77.740,12.856 78.154,12.974 233.203 L 13.086 380.664 13.923 382.227 C 16.226 386.524,14.658 386.328,46.843 386.328 C 76.749 386.328,77.661 386.273,79.873 384.331 C 82.878 381.693,82.593 397.077,82.606 236.719 L 82.617 93.555 83.492 91.415 C 85.575 86.324,89.203 82.817,94.116 81.145 L 96.680 80.273 192.969 80.171 C 299.164 80.058,292.406 79.912,298.799 82.466 C 317.654 90.000,318.906 108.960,301.961 130.365 C 267.154 174.335,220.286 232.644,217.967 234.863 C 216.413 236.350,215.087 236.695,213.725 235.966 C 213.075 235.618,209.192 230.904,193.753 211.719 C 182.393 197.602,179.147 194.811,172.175 193.167 C 169.771 192.600,117.578 192.229,117.578 192.779 C 117.578 193.060,121.361 197.879,135.356 215.430 C 157.805 243.580,176.678 267.255,191.872 286.328 C 215.552 316.053,218.064 318.256,228.764 318.665 C 235.880 318.937,239.339 317.405,246.199 310.944 C 249.513 307.824,344.826 189.482,366.072 162.109 C 412.093 102.818,376.462 19.493,302.930 14.449 C 296.073 13.979,81.712 14.031,76.758 14.504 M4.881 229.297 C 4.881 311.689,4.926 345.396,4.980 304.199 C 5.035 263.003,5.035 195.591,4.980 154.395 C 4.926 113.198,4.881 146.904,4.881 229.297 M394.656 100.391 C 394.656 101.787,394.727 102.358,394.814 101.660 C 394.900 100.962,394.900 99.819,394.814 99.121 C 394.727 98.423,394.656 98.994,394.656 100.391 M394.643 107.617 C 394.646 108.691,394.722 109.084,394.812 108.491 C 394.901 107.897,394.899 107.018,394.806 106.538 C 394.714 106.057,394.640 106.543,394.643 107.617 M383.395 294.727 C 383.395 339.414,383.440 357.637,383.496 335.223 C 383.552 312.808,383.552 276.246,383.496 253.973 C 383.440 231.700,383.395 250.039,383.395 294.727 M368.750 230.416 C 365.420 234.614,336.650 270.612,304.817 310.412 C 247.024 382.670,246.240 383.675,246.724 384.936 C 247.245 386.292,248.801 386.328,307.233 386.328 C 374.312 386.328,370.595 386.575,373.455 381.922 C 375.011 379.391,375.004 379.741,374.903 300.311 L 374.805 222.783 368.750 230.416 M90.724 229.492 C 90.728 230.352,90.808 230.657,90.901 230.171 C 90.995 229.685,90.991 228.982,90.893 228.609 C 90.796 228.235,90.719 228.633,90.724 229.492 M90.731 239.063 C 90.731 240.029,90.808 240.425,90.901 239.941 C 90.994 239.458,90.994 238.667,90.901 238.184 C 90.808 237.700,90.731 238.096,90.731 239.063 M90.746 254.492 C 90.748 255.781,90.821 256.262,90.908 255.559 C 90.995 254.857,90.993 253.803,90.904 253.216 C 90.815 252.629,90.744 253.203,90.746 254.492 M90.800 275.391 C 90.800 282.588,90.853 285.532,90.917 281.934 C 90.982 278.335,90.982 272.446,90.917 268.848 C 90.853 265.249,90.800 268.193,90.800 275.391 M90.731 290.234 C 90.731 291.201,90.808 291.597,90.901 291.113 C 90.994 290.630,90.994 289.839,90.901 289.355 C 90.808 288.872,90.731 289.268,90.731 290.234 M90.753 294.727 C 90.755 296.230,90.826 296.798,90.910 295.987 C 90.995 295.177,90.993 293.946,90.907 293.253 C 90.821 292.560,90.751 293.223,90.753 294.727 M90.786 304.688 C 90.786 308.447,90.844 309.985,90.916 308.105 C 90.987 306.226,90.987 303.149,90.916 301.270 C 90.844 299.390,90.786 300.928,90.786 304.688 M90.746 313.867 C 90.748 315.156,90.821 315.637,90.908 314.934 C 90.995 314.232,90.993 313.178,90.904 312.591 C 90.815 312.004,90.744 312.578,90.746 313.867 M90.793 325.586 C 90.794 330.742,90.849 332.798,90.917 330.153 C 90.985 327.509,90.984 323.290,90.917 320.778 C 90.849 318.266,90.793 320.430,90.793 325.586 M228.813 327.620 C 229.299 327.713,230.002 327.710,230.376 327.612 C 230.749 327.514,230.352 327.438,229.492 327.442 C 228.633 327.447,228.327 327.527,228.813 327.620 M90.807 358.203 C 90.807 369.912,90.857 374.702,90.918 368.848 C 90.978 362.993,90.978 353.413,90.918 347.559 C 90.857 341.704,90.807 346.494,90.807 358.203 " stroke="none" fill="url(#brandGrad)" fill-rule="evenodd"></path>
  </g>
</svg>
